<svg width="100" height="100" viewBox="0 0 100 100" fill="none" xmlns="http://www.w3.org/2000/svg">
<g clip-path="url(#clip0_122:5)">
<path d="M93.1611 0.0710365C59.6601 -1.04296 32.2201 11.314 32.2201 11.314L32.2001 74.023C28.7891 72.669 24.6411 72.348 20.4281 73.372C11.3451 75.579 5.39705 83.192 7.14305 90.379C8.88905 97.566 17.6671 101.604 26.7491 99.398C35.3131 97.317 41.0871 90.429 40.2561 83.626V36.771C40.2561 36.771 59.6601 29.987 84.8291 28.286V63.135C81.4551 61.843 77.3861 61.55 73.2501 62.555C64.1671 64.761 58.2191 72.374 59.9651 79.562C61.7101 86.749 70.4881 90.786 79.5711 88.58C87.5021 86.653 93.0421 80.603 93.1581 74.316L93.1611 74.32V0.0710365V0.0710365Z" fill="white"/>
</g>
<defs>
<clipPath id="clip0_122:5">
<rect width="100" height="100" fill="white"/>
</clipPath>
</defs>
</svg>
